<?xml version="1.0" encoding="UTF-8" standalone="no"?>
<!DOCTYPE svg PUBLIC "-//W3C//DTD SVG 1.1//EN" "http://www.w3.org/Graphics/SVG/1.1/DTD/svg11.dtd">
<svg width="100%" height="100%" viewBox="0 0 230 32" version="1.1" xmlns="http://www.w3.org/2000/svg" xmlns:xlink="http://www.w3.org/1999/xlink" xml:space="preserve" xmlns:serif="http://www.serif.com/" style="fill-rule:evenodd;clip-rule:evenodd;stroke-linejoin:round;stroke-miterlimit:2;">
    <g transform="matrix(1,0,0,1,-129.127,-96.1547)">
        <g transform="matrix(0.905417,0,0,0.905417,12.2132,9.0946)">
            <g transform="matrix(44.6735,0,0,44.6735,126,131)">
                <path d="M0.15,-0.205L0.17,-0.1C0.182,-0.093 0.198,-0.087 0.219,-0.083C0.24,-0.078 0.26,-0.075 0.28,-0.075C0.3,-0.075 0.319,-0.078 0.338,-0.083C0.357,-0.087 0.373,-0.095 0.387,-0.104C0.401,-0.113 0.412,-0.125 0.421,-0.138C0.429,-0.151 0.433,-0.165 0.433,-0.182C0.433,-0.201 0.428,-0.218 0.417,-0.231C0.406,-0.244 0.393,-0.255 0.376,-0.265C0.359,-0.274 0.339,-0.283 0.318,-0.29C0.297,-0.297 0.275,-0.305 0.253,-0.313C0.23,-0.323 0.207,-0.333 0.186,-0.344C0.164,-0.354 0.145,-0.367 0.128,-0.382C0.111,-0.397 0.097,-0.415 0.087,-0.436C0.077,-0.457 0.072,-0.484 0.072,-0.515C0.072,-0.548 0.079,-0.577 0.092,-0.602C0.105,-0.627 0.122,-0.647 0.143,-0.663C0.165,-0.679 0.191,-0.691 0.22,-0.699C0.249,-0.706 0.279,-0.71 0.311,-0.71C0.326,-0.71 0.341,-0.709 0.358,-0.707C0.375,-0.705 0.391,-0.703 0.407,-0.7C0.423,-0.697 0.438,-0.693 0.452,-0.69C0.466,-0.686 0.478,-0.683 0.488,-0.68L0.52,-0.67L0.515,-0.5L0.45,-0.5L0.416,-0.607C0.397,-0.613 0.379,-0.617 0.361,-0.62C0.342,-0.623 0.323,-0.624 0.304,-0.624C0.285,-0.624 0.267,-0.622 0.252,-0.617C0.236,-0.612 0.223,-0.605 0.212,-0.596C0.201,-0.587 0.192,-0.578 0.186,-0.567C0.18,-0.556 0.177,-0.545 0.177,-0.534C0.178,-0.506 0.187,-0.484 0.205,-0.468C0.223,-0.452 0.245,-0.438 0.272,-0.427C0.299,-0.416 0.328,-0.405 0.359,-0.395C0.39,-0.385 0.418,-0.373 0.445,-0.358C0.471,-0.343 0.493,-0.323 0.51,-0.299C0.528,-0.275 0.537,-0.244 0.537,-0.205C0.537,-0.17 0.53,-0.14 0.517,-0.113C0.504,-0.086 0.485,-0.064 0.462,-0.046C0.439,-0.027 0.411,-0.013 0.379,-0.004C0.347,0.006 0.313,0.011 0.276,0.011C0.261,0.011 0.246,0.01 0.229,0.008C0.212,0.006 0.195,0.003 0.179,0C0.162,-0.003 0.147,-0.006 0.133,-0.01C0.119,-0.013 0.107,-0.017 0.098,-0.02L0.07,-0.03L0.07,-0.205L0.15,-0.205Z" style="fill:white;fill-rule:nonzero;"/>
            </g>
            <g transform="matrix(44.6735,0,0,44.6735,152.715,131)">
                <path d="M0.075,-0.5C0.147,-0.527 0.213,-0.54 0.273,-0.54C0.332,-0.54 0.377,-0.528 0.408,-0.504C0.439,-0.481 0.455,-0.441 0.455,-0.385L0.455,-0.08L0.535,-0.06L0.535,-0.005L0.38,0L0.359,-0.07C0.306,-0.017 0.253,0.01 0.201,0.01C0.149,0.01 0.11,-0.003 0.084,-0.029C0.058,-0.055 0.045,-0.092 0.045,-0.14C0.045,-0.243 0.122,-0.295 0.275,-0.295L0.355,-0.295L0.355,-0.375C0.355,-0.435 0.323,-0.465 0.26,-0.465C0.224,-0.465 0.194,-0.461 0.171,-0.454L0.159,-0.45L0.145,-0.375L0.08,-0.375L0.075,-0.5ZM0.355,-0.23L0.285,-0.23C0.235,-0.23 0.2,-0.224 0.179,-0.211C0.158,-0.198 0.147,-0.177 0.147,-0.15C0.147,-0.124 0.153,-0.104 0.166,-0.091C0.178,-0.077 0.196,-0.07 0.219,-0.07C0.23,-0.07 0.242,-0.072 0.254,-0.076C0.265,-0.08 0.277,-0.085 0.288,-0.091C0.299,-0.097 0.308,-0.103 0.317,-0.111C0.326,-0.117 0.333,-0.124 0.338,-0.13L0.355,-0.15L0.355,-0.23Z" style="fill:white;fill-rule:nonzero;"/>
            </g>
            <g transform="matrix(44.6735,0,0,44.6735,177.955,131)">
                <path d="M0.07,-0.515L0.16,-0.525L0.16,-0.585C0.16,-0.646 0.176,-0.693 0.208,-0.728C0.24,-0.763 0.286,-0.78 0.345,-0.78C0.373,-0.78 0.4,-0.777 0.425,-0.772C0.45,-0.766 0.467,-0.76 0.478,-0.754L0.495,-0.745L0.495,-0.62L0.425,-0.62L0.41,-0.7C0.393,-0.703 0.371,-0.705 0.342,-0.705C0.287,-0.705 0.26,-0.672 0.26,-0.605L0.26,-0.525L0.392,-0.525L0.389,-0.45L0.26,-0.45L0.26,-0.08L0.357,-0.055L0.357,0L0.075,0L0.075,-0.055L0.16,-0.08L0.16,-0.45L0.07,-0.45L0.07,-0.515Z" style="fill:white;fill-rule:nonzero;"/>
            </g>
            <g transform="matrix(44.6735,0,0,44.6735,197.612,131)">
                <path d="M0.49,-0.252L0.145,-0.25C0.145,-0.195 0.158,-0.152 0.185,-0.119C0.211,-0.086 0.246,-0.07 0.29,-0.07C0.305,-0.07 0.319,-0.071 0.334,-0.074C0.349,-0.077 0.363,-0.08 0.376,-0.084C0.389,-0.088 0.4,-0.093 0.411,-0.098C0.422,-0.102 0.431,-0.107 0.438,-0.112L0.458,-0.125L0.493,-0.073C0.47,-0.055 0.45,-0.041 0.431,-0.031C0.411,-0.02 0.389,-0.011 0.364,-0.003C0.338,0.006 0.31,0.01 0.28,0.01C0.201,0.01 0.142,-0.014 0.101,-0.062C0.06,-0.109 0.04,-0.174 0.04,-0.257C0.04,-0.298 0.046,-0.336 0.058,-0.371C0.07,-0.406 0.087,-0.436 0.109,-0.461C0.13,-0.486 0.156,-0.505 0.186,-0.519C0.216,-0.533 0.249,-0.54 0.285,-0.54C0.425,-0.54 0.495,-0.462 0.495,-0.305L0.49,-0.252ZM0.149,-0.325L0.389,-0.325C0.389,-0.366 0.38,-0.399 0.363,-0.424C0.346,-0.449 0.318,-0.462 0.279,-0.462C0.241,-0.462 0.211,-0.449 0.188,-0.424C0.165,-0.398 0.152,-0.365 0.149,-0.325Z" style="fill:white;fill-rule:nonzero;"/>
            </g>
            <g transform="matrix(44.6735,0,0,44.6735,231.563,131)">
                <path d="M0.435,-0.06L0.435,0L0.13,0L0.13,-0.06L0.23,-0.08L0.23,-0.62L0.1,-0.62L0.075,-0.52L0.01,-0.52L0.01,-0.7L0.555,-0.7L0.555,-0.52L0.49,-0.52L0.465,-0.62L0.335,-0.62L0.335,-0.08L0.435,-0.06Z" style="fill:white;fill-rule:nonzero;"/>
            </g>
            <g transform="matrix(44.6735,0,0,44.6735,256.804,131)">
                <path d="M0.54,-0.53L0.54,-0.08L0.625,-0.06L0.625,-0.005L0.46,0L0.45,-0.07C0.422,-0.045 0.39,-0.026 0.355,-0.012C0.32,0.003 0.29,0.01 0.265,0.01C0.212,0.01 0.172,-0.006 0.145,-0.037C0.118,-0.068 0.105,-0.112 0.105,-0.169L0.105,-0.45L0.02,-0.47L0.02,-0.525L0.205,-0.53L0.205,-0.179C0.205,-0.144 0.212,-0.117 0.226,-0.101C0.24,-0.084 0.261,-0.075 0.29,-0.075C0.319,-0.075 0.345,-0.082 0.369,-0.095C0.393,-0.108 0.411,-0.121 0.422,-0.134L0.44,-0.154L0.44,-0.45L0.355,-0.47L0.355,-0.525L0.54,-0.53Z" style="fill:white;fill-rule:nonzero;"/>
            </g>
            <g transform="matrix(44.6735,0,0,44.6735,285.842,131)">
                <path d="M0.205,-0.53L0.214,-0.459C0.221,-0.464 0.23,-0.472 0.242,-0.481C0.254,-0.49 0.268,-0.499 0.284,-0.508C0.301,-0.517 0.319,-0.524 0.339,-0.531C0.358,-0.537 0.379,-0.54 0.4,-0.54C0.454,-0.54 0.494,-0.524 0.521,-0.493C0.547,-0.461 0.56,-0.417 0.56,-0.36L0.56,-0.08L0.635,-0.055L0.635,0L0.395,0L0.395,-0.055L0.46,-0.08L0.46,-0.35C0.46,-0.386 0.453,-0.412 0.439,-0.43C0.425,-0.447 0.404,-0.455 0.375,-0.455C0.361,-0.455 0.347,-0.453 0.334,-0.45C0.32,-0.446 0.307,-0.441 0.296,-0.435C0.284,-0.429 0.274,-0.423 0.265,-0.416C0.256,-0.408 0.248,-0.402 0.242,-0.395L0.225,-0.375L0.225,-0.08L0.29,-0.055L0.29,0L0.04,0L0.04,-0.055L0.125,-0.08L0.125,-0.45L0.04,-0.47L0.04,-0.525L0.205,-0.53Z" style="fill:white;fill-rule:nonzero;"/>
            </g>
            <g transform="matrix(44.6735,0,0,44.6735,315.55,131)">
                <path d="M0.205,-0.53L0.214,-0.459C0.221,-0.464 0.23,-0.472 0.242,-0.481C0.254,-0.49 0.268,-0.499 0.284,-0.508C0.301,-0.517 0.319,-0.524 0.339,-0.531C0.358,-0.537 0.379,-0.54 0.4,-0.54C0.454,-0.54 0.494,-0.524 0.521,-0.493C0.547,-0.461 0.56,-0.417 0.56,-0.36L0.56,-0.08L0.635,-0.055L0.635,0L0.395,0L0.395,-0.055L0.46,-0.08L0.46,-0.35C0.46,-0.386 0.453,-0.412 0.439,-0.43C0.425,-0.447 0.404,-0.455 0.375,-0.455C0.361,-0.455 0.347,-0.453 0.334,-0.45C0.32,-0.446 0.307,-0.441 0.296,-0.435C0.284,-0.429 0.274,-0.423 0.265,-0.416C0.256,-0.408 0.248,-0.402 0.242,-0.395L0.225,-0.375L0.225,-0.08L0.29,-0.055L0.29,0L0.04,0L0.04,-0.055L0.125,-0.08L0.125,-0.45L0.04,-0.47L0.04,-0.525L0.205,-0.53Z" style="fill:white;fill-rule:nonzero;"/>
            </g>
            <g transform="matrix(44.6735,0,0,44.6735,345.257,131)">
                <path d="M0.49,-0.252L0.145,-0.25C0.145,-0.195 0.158,-0.152 0.185,-0.119C0.211,-0.086 0.246,-0.07 0.29,-0.07C0.305,-0.07 0.319,-0.071 0.334,-0.074C0.349,-0.077 0.363,-0.08 0.376,-0.084C0.389,-0.088 0.4,-0.093 0.411,-0.098C0.422,-0.102 0.431,-0.107 0.438,-0.112L0.458,-0.125L0.493,-0.073C0.47,-0.055 0.45,-0.041 0.431,-0.031C0.411,-0.02 0.389,-0.011 0.364,-0.003C0.338,0.006 0.31,0.01 0.28,0.01C0.201,0.01 0.142,-0.014 0.101,-0.062C0.06,-0.109 0.04,-0.174 0.04,-0.257C0.04,-0.298 0.046,-0.336 0.058,-0.371C0.07,-0.406 0.087,-0.436 0.109,-0.461C0.13,-0.486 0.156,-0.505 0.186,-0.519C0.216,-0.533 0.249,-0.54 0.285,-0.54C0.425,-0.54 0.495,-0.462 0.495,-0.305L0.49,-0.252ZM0.149,-0.325L0.389,-0.325C0.389,-0.366 0.38,-0.399 0.363,-0.424C0.346,-0.449 0.318,-0.462 0.279,-0.462C0.241,-0.462 0.211,-0.449 0.188,-0.424C0.165,-0.398 0.152,-0.365 0.149,-0.325Z" style="fill:white;fill-rule:nonzero;"/>
            </g>
            <g transform="matrix(44.6735,0,0,44.6735,368.934,131)">
                <path d="M0.212,-0.77L0.212,-0.08L0.312,-0.055L0.312,0L0.025,0L0.025,-0.055L0.11,-0.08L0.11,-0.69L0.025,-0.71L0.025,-0.765L0.212,-0.77Z" style="fill:white;fill-rule:nonzero;"/>
            </g>
        </g>
    </g>
</svg>
